<svg xmlns="http://www.w3.org/2000/svg" width="20.284" height="33.617" viewBox="0 0 20.284 33.617">
  <g id="Especialista_de_marketing" data-name="Especialista de marketing" transform="translate(0 0)">
    <path id="Trazado_57" data-name="Trazado 57" d="M6.513,0a6.513,6.513,0,0,1,6.513,6.513,6.916,6.916,0,0,1-.495,2.495,6.408,6.408,0,0,1-6.018,4.018A6.513,6.513,0,0,1,6.513,0Z" transform="translate(3.654)" fill="#fff"/>
    <path id="Trazado_22" data-name="Trazado 22" d="M21.566,19.122c-3.273-.273-6.118,0-8.572,2.029C8.887,24.44,9.677,28.869,9.677,34.287A2.627,2.627,0,0,0,12.3,36.909c15.8,0,16.43.51,17.367-1.565.308-.7.223-.479.223-7.192,0-5.333-4.617-9.03-8.324-9.03Z" transform="translate(-9.616 -3.347)" fill="#fff"/>
  </g>
</svg>
