<svg xmlns="http://www.w3.org/2000/svg" width="26.106" height="26.058" viewBox="0 0 26.106 26.058">
  <g id="Grupo_3027" data-name="Grupo 3027" transform="translate(0 0)">
    <path id="Trazado_2364" data-name="Trazado 2364" d="M366.94,187.672a5.79,5.79,0,0,1,.273-.658,18.459,18.459,0,0,1,2.691-3.638,23.589,23.589,0,0,1,1.954-1.839,1.522,1.522,0,0,1,2.34.348,31.117,31.117,0,0,1,3.22,5.275,7.363,7.363,0,0,1,.314.865,1.317,1.317,0,0,1-.3,1.367c-.416.438-.873.84-1.329,1.239-.606.53-.62.525-.308,1.256a11.889,11.889,0,0,0,6.863,6.647.464.464,0,0,0,.638-.155c.388-.489.809-.952,1.232-1.411a1.56,1.56,0,0,1,1.922-.43,29.6,29.6,0,0,1,2.728,1.386c1.041.618,2.033,1.321,3.038,2a1.924,1.924,0,0,1,.785,1.168.988.988,0,0,1-.1.785,5.976,5.976,0,0,1-.576.852,22.417,22.417,0,0,1-4.963,4.147,2.479,2.479,0,0,1-1.956.2,18.452,18.452,0,0,1-6.478-2.755,29.817,29.817,0,0,1-9.88-10.426,16.759,16.759,0,0,1-1.948-5.127C367.044,188.434,367,188.093,366.94,187.672Z" transform="translate(-366.94 -181.126)" fill="#fff"/>
  </g>
</svg>
