<svg xmlns="http://www.w3.org/2000/svg" width="34.827" height="34.53" viewBox="0 0 34.827 34.53">
  <g id="Grupo_3026" data-name="Grupo 3026" transform="translate(-1827.534 -716.224)">
    <g id="Grupo_1" data-name="Grupo 1" transform="translate(1827.534 716.224)">
      <g id="Unión_5" data-name="Unión 5" transform="translate(0 0)" fill="none">
        <path d="M2.659,25.235a17.1,17.1,0,1,1,6.879,6.9L0,34.53Z" stroke="none"/>
        <path d="M 17.71736907958984 31.71181869506836 C 21.61998748779297 31.71181869506836 25.28897857666016 30.19244766235352 28.0484676361084 27.43359756469727 C 30.8077278137207 24.67497825622559 32.32731628417969 21.00733757019043 32.32731628417969 17.10630798339844 C 32.32731628417969 13.20490837097168 30.80771827697754 9.537017822265625 28.04843902587891 6.7782883644104 C 25.28899765014648 4.019388198852539 21.62001800537109 2.499998092651367 17.71736907958984 2.499998092651367 C 13.81463813781738 2.499998092651367 10.14549827575684 4.019408226013184 7.385838031768799 6.778347969055176 C 4.62634801864624 9.537117958068848 3.106628179550171 13.20498847961426 3.106628179550171 17.10630798339844 C 3.106628179550171 19.53007888793945 3.711958169937134 21.92945861816406 4.85718822479248 24.04504776000977 L 5.34276819229126 24.94205856323242 L 3.59590744972229 31.04891204833984 L 9.876718521118164 29.47163772583008 L 10.7346076965332 29.93933868408203 C 12.86156845092773 31.09890747070312 15.27616786956787 31.71181869506836 17.71736907958984 31.71181869506836 M -1.857910206126689e-06 34.52955627441406 L 2.658648252487183 25.23517799377441 C 1.349708199501038 22.81715774536133 0.6066281199455261 20.04858779907227 0.6066281199455261 17.10630798339844 C 0.6066281199455261 7.658828258514404 8.267528533935547 -1.862792942119995e-06 17.71736907958984 -1.862792942119995e-06 C 27.16720771789551 -1.862792942119995e-06 34.82731628417969 7.658828258514404 34.82731628417969 17.10630798339844 C 34.82731628417969 26.55298805236816 27.16720771789551 34.21181869506836 17.71736907958984 34.21181869506836 C 14.75448799133301 34.21181869506836 11.96810817718506 33.45919799804688 9.537948608398438 32.13433837890625 L -1.857910206126689e-06 34.52955627441406 Z" stroke="none" fill="#fff"/>
      </g>
      <g id="Grupo_3023" data-name="Grupo 3023" transform="translate(9.155 9.152)">
        <path id="Trazado_2364" data-name="Trazado 2364" d="M366.94,185.335a3.731,3.731,0,0,1,.176-.423,11.868,11.868,0,0,1,1.731-2.339,15.162,15.162,0,0,1,1.256-1.183.978.978,0,0,1,1.5.224,20.009,20.009,0,0,1,2.07,3.392,4.738,4.738,0,0,1,.2.556.847.847,0,0,1-.19.879c-.268.282-.561.54-.854.8-.389.34-.4.338-.2.807a7.644,7.644,0,0,0,4.413,4.274.3.3,0,0,0,.41-.1c.249-.314.52-.612.792-.907a1,1,0,0,1,1.236-.276,19.027,19.027,0,0,1,1.754.891c.67.4,1.307.849,1.953,1.285a1.237,1.237,0,0,1,.5.751.635.635,0,0,1-.062.5,3.84,3.84,0,0,1-.37.548,14.413,14.413,0,0,1-3.191,2.667,1.594,1.594,0,0,1-1.258.131,11.865,11.865,0,0,1-4.165-1.772,19.173,19.173,0,0,1-6.353-6.7,10.776,10.776,0,0,1-1.253-3.3C367.007,185.825,366.981,185.605,366.94,185.335Z" transform="translate(-366.94 -181.126)" fill="#fff"/>
      </g>
    </g>
  </g>
</svg>
