<svg xmlns="http://www.w3.org/2000/svg" width="28.89" height="28.899" viewBox="0 0 28.89 28.899">
  <g id="Grupo_3028" data-name="Grupo 3028" transform="translate(444.098 152.745)">
    <path id="Trazado_2367" data-name="Trazado 2367" d="M-422.713-152.745h1.749a1.381,1.381,0,0,1,.952,1.533c-.03.681-.007,1.365-.007,2.079.426,0,.827,0,1.228,0a3.626,3.626,0,0,1,3.453,2.647c.047.169.087.341.13.512v18.958c-.014.024-.037.046-.04.072a3.663,3.663,0,0,1-3.781,3.1c-2.641-.041-5.283-.01-7.925-.01q-6.755,0-13.509,0A3.6,3.6,0,0,1-444.1-127.5q-.006-9.011,0-18.022a3.552,3.552,0,0,1,2.361-3.379,5.787,5.787,0,0,1,1.35-.23c.358-.036.723-.007,1.1-.007,0-.722.024-1.4-.006-2.075a1.38,1.38,0,0,1,.952-1.536h1.749a1.388,1.388,0,0,1,.925,1.552c-.038.59-.008,1.184-.008,1.776v.265h12.046v-.321q0-1.029,0-2.059a1.158,1.158,0,0,1,.527-1A3.8,3.8,0,0,1-422.713-152.745Zm5.092,12.1h-24.047c-.007.083-.016.147-.016.212q0,6.46,0,12.921a1.175,1.175,0,0,0,1.267,1.242q10.762,0,21.525-.005a1.479,1.479,0,0,0,.671-.164,1.208,1.208,0,0,0,.6-1.186q-.01-6.361,0-12.723Z" transform="translate(0)" fill="#fff"/>
  </g>
</svg>
